<svg height="512pt" viewBox="0 0 512 512" width="512pt" xmlns="http://www.w3.org/2000/svg"><path d="m512 256c0 141.378906-114.621094 256-256 256-85.808594 0-161.761719-42.230469-208.210938-107.03125-11.257812-15.707031-20.789062-32.75-28.300781-50.839844-12.558593-30.21875-19.488281-63.367187-19.488281-98.128906 0-13.621094 1.058594-26.988281 3.121094-40.03125 19.207031-122.367188 125.117187-215.96875 252.878906-215.96875 141.378906 0 256 114.621094 256 256zm0 0" fill="#9e69e2"/><path d="m512 256c0 26.050781-3.890625 51.191406-11.128906 74.871094-32.011719 104.847656-129.542969 181.128906-244.871094 181.128906-65.960938 0-126.101562-24.949219-171.488281-65.949219-26.5625-23.960937-48.070313-53.429687-62.742188-86.601562-14-31.628907-21.769531-66.628907-21.769531-103.449219 0-17.398438 1.730469-34.378906 5.039062-50.808594 5.480469-27.203125 15.28125-52.851562 28.640626-76.191406 44.121093 77.070312 127.160156 129 222.320312 129s178.210938-51.929688 222.320312-129c21.429688 37.429688 33.679688 80.78125 33.679688 127zm0 0" fill="#8e4fd2"/><path d="m30.742188 377.703125c7.15625 13.21875 15.429687 25.738281 24.71875 37.425781 46.898437 59.019532 119.300781 96.871094 200.539062 96.871094s153.640625-37.851562 200.539062-96.871094c9.289063-11.6875 17.5625-24.207031 24.71875-37.425781zm0 0" fill="#7038ba"/><path d="m223.453125 250.554688c0-.1875-.011719-.367188-.011719-.554688 0-33.84375 27.4375-61.277344 61.277344-61.277344 8.042969 0 15.710938 1.5625 22.746094 4.378906 13.589844-24.34375 39.589844-40.816406 69.449218-40.816406 38.773438 0 71.050782 27.769532 78.0625 64.503906 2.089844-.300781 4.226563-.464843 6.402344-.464843 21.082032 0 38.742188 14.597656 43.464844 34.230469zm0 0" fill="#fff"/><path d="m283.242188 250.554688c0-.109376-.007813-.210938-.007813-.320313 0-19.460937 15.777344-35.234375 35.238281-35.234375 4.621094 0 9.035156.898438 13.078125 2.515625 7.8125-13.996094 22.765625-23.46875 39.933594-23.46875 22.296875 0 40.855469 15.96875 44.890625 37.089844 1.199219-.171875 2.429688-.265625 3.679688-.265625 12.121093 0 22.28125 8.390625 24.996093 19.679687h-161.808593zm0 0" fill="#d0f6ff"/><path d="m422.199219 297.476562c.078125-.003906.15625-.003906.234375 0-11.625 16.480469-27.335938 30.441407-46.570313 40.191407-62.917969 31.898437-139.785156 6.742187-171.683593-56.175781-31.898438-62.921876-6.75-139.785157 56.167968-171.683594 19.234375-9.75 39.78125-14.171875 59.941406-13.8125-.042968.0625-.09375.132812-.136718.195312-.15625.21875-.304688.433594-.453125.652344-25.886719 37.320312-30.996094 87.296875-9.015625 130.65625 21.980468 43.359375 65.328125 68.785156 110.730468 69.953125.265626.007813.523438.007813.785157.023437zm0 0" fill="#ffe955"/><path d="m422.199219 297.476562c-5.835938 4.078126-12.058594 7.820313-18.640625 11.15625-65.214844 33.0625-135.421875 25.660157-169.792969-42.136718-35.40625-69.839844 1.160156-128.804688 66.371094-161.863282 6.582031-3.339843 13.273437-6.144531 20.015625-8.441406-.15625.21875-.304688.433594-.453125.652344-25.886719 37.320312-30.996094 87.296875-9.015625 130.65625 21.980468 43.359375 65.328125 68.785156 110.730468 69.953125.265626.007813.523438.007813.785157.023437zm0 0" fill="#ffd112"/><path d="m421.417969 297.453125c-69.847657 29.449219-128.890625 5.203125-155.488281-47.261719-26.601563-52.472656-11.261719-114.417968 53.773437-153.347656-25.890625 37.320312-31 87.296875-9.019531 130.65625 21.980468 43.359375 65.328125 68.785156 110.734375 69.953125zm0 0" fill="#ff9f00"/><path d="m381.621094 390.789062h-343.292969c-7.21875-11.628906-13.539063-23.878906-18.839844-36.660156-3.957031-9.539062-7.359375-19.359375-10.160156-29.4375 15.460937-13.78125 35.820313-22.140625 58.140625-22.140625 11.472656 0 22.421875 2.230469 32.460938 6.25 19.390624-34.742187 56.5-58.25 99.109374-58.25 55.339844 0 101.402344 39.628907 111.410157 92.058594 2.992187-.429687 6.03125-.660156 9.140625-.660156 30.089844 0 55.289062 20.820312 62.03125 48.839843zm0 0" fill="#fff"/><path d="m65.363281 390.792969c0-.152344-.011719-.300781-.011719-.453125 0-27.773438 22.515626-50.285156 50.289063-50.285156 6.597656 0 12.890625 1.28125 18.664063 3.59375 11.152343-19.980469 32.488281-33.496094 56.992187-33.496094 31.820313 0 58.308594 22.789062 64.0625 52.933594 1.71875-.246094 3.46875-.382813 5.253906-.382813 17.300781 0 31.796875 11.976563 35.671875 28.089844zm0 0" fill="#d0f6ff"/><g fill="#ffd112"><path d="m111.121094 150.96875h-1.523438c-6.75 0-12.226562-5.472656-12.226562-12.226562v-1.523438h-8.714844v1.523438c0 6.753906-5.472656 12.226562-12.226562 12.226562h-1.527344v8.71875h1.527344c6.753906 0 12.226562 5.472656 12.226562 12.226562v1.523438h8.714844v-1.523438c0-6.753906 5.476562-12.226562 12.226562-12.226562h1.523438zm0 0"/><path d="m180.816406 431.347656h-1.523437c-6.753907 0-12.226563-5.476562-12.226563-12.230468v-1.523438h-8.714844v1.523438c0 6.753906-5.472656 12.230468-12.226562 12.230468h-1.523438v8.714844h1.523438c6.753906 0 12.226562 5.472656 12.226562 12.226562v1.523438h8.714844v-1.523438c0-6.753906 5.476563-12.226562 12.230469-12.226562h1.523437v-8.714844zm0 0"/><path d="m368.152344 431.347656h-1.523438c-6.753906 0-12.226562-5.476562-12.226562-12.230468v-1.523438h-8.71875v1.523438c0 6.753906-5.472656 12.230468-12.226563 12.230468h-1.523437v8.714844h1.523437c6.753907 0 12.226563 5.472656 12.226563 12.226562v1.523438h8.71875v-1.523438c0-6.753906 5.472656-12.226562 12.226562-12.226562h1.523438zm0 0"/><path d="m399.730469 74.378906h-1.523438c-6.753906 0-12.226562-5.476562-12.226562-12.226562v-1.523438h-8.714844v1.523438c0 6.75-5.476563 12.226562-12.230469 12.226562h-1.523437v8.714844h1.523437c6.753906 0 12.230469 5.472656 12.230469 12.226562v1.527344h8.714844v-1.527344c0-6.753906 5.472656-12.226562 12.226562-12.226562h1.523438zm0 0"/><path d="m457.636719 346.113281h-1.527344c-6.75 0-12.226563-5.472656-12.226563-12.226562v-1.523438h-8.714843v1.523438c0 6.753906-5.472657 12.226562-12.226563 12.226562h-1.527344v8.71875h1.527344c6.753906 0 12.226563 5.472657 12.226563 12.226563v1.523437h8.714843v-1.523437c0-6.753906 5.476563-12.226563 12.226563-12.226563h1.527344zm0 0"/></g></svg>