<?xml version="1.0" encoding="iso-8859-1"?>
<!-- Generator: Adobe Illustrator 19.0.0, SVG Export Plug-In . SVG Version: 6.00 Build 0)  -->
<svg version="1.1" id="Capa_1" xmlns="http://www.w3.org/2000/svg" xmlns:xlink="http://www.w3.org/1999/xlink" x="0px" y="0px"
	 viewBox="0 0 191.147 191.147" style="enable-background:new 0 0 191.147 191.147;" xml:space="preserve">
<rect x="10.241" y="20.48" style="fill:#EA3457;" width="170.667" height="44.373"/>
<path style="fill:#602F75;" d="M180.908,68.267H10.241c-1.884,0-3.413-1.529-3.413-3.413V20.48c0-1.884,1.529-3.413,3.413-3.413
	h170.667c1.884,0,3.413,1.529,3.413,3.413v44.373C184.321,66.738,182.792,68.267,180.908,68.267z M13.654,61.44h163.84V23.893
	H13.654V61.44z"/>
<path style="fill:#FFFFFF;" d="M167.503,187.733H23.643c-7.402,0-13.404-6.001-13.404-13.404V64.853h170.667v109.476
	C180.908,181.733,174.907,187.733,167.503,187.733z"/>
<path style="fill:#602F75;" d="M167.503,191.147H23.643c-9.274,0-16.818-7.543-16.818-16.817V64.853
	c0-1.884,1.529-3.413,3.413-3.413h170.667c1.884,0,3.413,1.529,3.413,3.413v109.476
	C184.321,183.603,176.777,191.147,167.503,191.147z M13.654,68.267v106.063c0,5.509,4.482,9.991,9.991,9.991h143.86
	c5.509,0,9.991-4.482,9.991-9.991V68.267H13.654z"/>
<g>
	<path style="fill:#FFE600;" d="M58.028,37.547L58.028,37.547c-3.77,0-6.827-3.057-6.827-6.827V10.24
		c0-3.77,3.057-6.827,6.827-6.827l0,0c3.77,0,6.827,3.057,6.827,6.827v20.48C64.854,34.49,61.798,37.547,58.028,37.547z"/>
	<path style="fill:#FFE600;" d="M58.028,40.96c-5.647,0-10.24-4.593-10.24-10.24V10.24C47.788,4.593,52.38,0,58.028,0
		c5.647,0,10.24,4.593,10.24,10.24v20.48C68.268,36.367,63.675,40.96,58.028,40.96z M58.028,6.827c-1.882,0-3.413,1.531-3.413,3.413
		v20.48c0,1.882,1.531,3.413,3.413,3.413c1.882,0,3.413-1.531,3.413-3.413V10.24C61.441,8.358,59.91,6.827,58.028,6.827z"/>
	<path style="fill:#FFE600;" d="M133.121,37.547L133.121,37.547c-3.77,0-6.827-3.057-6.827-6.827V10.24
		c0-3.77,3.057-6.827,6.827-6.827l0,0c3.77,0,6.827,3.057,6.827,6.827v20.48C139.948,34.49,136.891,37.547,133.121,37.547z"/>
	<path style="fill:#FFE600;" d="M133.121,40.96c-5.647,0-10.24-4.593-10.24-10.24V10.24c0-5.647,4.593-10.24,10.24-10.24
		s10.24,4.593,10.24,10.24v20.48C143.361,36.367,138.768,40.96,133.121,40.96z M133.121,6.827c-1.882,0-3.413,1.531-3.413,3.413
		v20.48c0,1.882,1.531,3.413,3.413,3.413s3.413-1.531,3.413-3.413V10.24C136.534,8.358,135.003,6.827,133.121,6.827z"/>
</g>
<g>
	<path style="fill:#00E7FF;" d="M71.503,144.841v-31.27c-5.82,4.468-9.737,6.702-11.754,6.702c-0.963,0-1.816-0.384-2.56-1.152
		c-0.748-0.766-1.116-1.655-1.116-2.664c0-1.169,0.367-2.028,1.101-2.577s2.028-1.26,3.883-2.132
		c2.77-1.306,4.987-2.679,6.647-4.123c1.664-1.444,3.133-3.058,4.417-4.845c1.283-1.787,2.12-2.886,2.51-3.299
		c0.387-0.411,1.12-0.618,2.196-0.618c1.217,0,2.19,0.469,2.924,1.408c0.734,0.94,1.101,2.234,1.101,3.883V143.5
		c0,4.605-1.57,6.907-4.71,6.907c-1.396,0-2.521-0.468-3.367-1.408C71.928,148.062,71.503,146.674,71.503,144.841z"/>
	<path style="fill:#00E7FF;" d="M109.164,141.44h17.937c1.787,0,3.151,0.367,4.089,1.101c0.939,0.734,1.41,1.731,1.41,2.99
		c0,1.121-0.374,2.074-1.116,2.852c-0.748,0.778-1.874,1.169-3.386,1.169h-25.289c-1.717,0-3.057-0.474-4.019-1.427
		c-0.963-0.951-1.444-2.067-1.444-3.35c0-0.824,0.311-1.918,0.927-3.282c0.62-1.362,1.294-2.434,2.028-3.214
		c3.046-3.161,5.796-5.869,8.25-8.127c2.451-2.255,4.204-3.739,5.257-4.449c1.877-1.328,3.441-2.664,4.69-4.004
		c1.249-1.34,2.2-2.714,2.854-4.123c0.654-1.408,0.976-2.789,0.976-4.14c0-1.466-0.346-2.778-1.046-3.936s-1.65-2.057-2.854-2.697
		c-1.2-0.642-2.514-0.963-3.934-0.963c-3,0-5.361,1.318-7.079,3.951c-0.227,0.343-0.613,1.283-1.15,2.818
		c-0.539,1.534-1.147,2.715-1.819,3.54c-0.676,0.823-1.667,1.237-2.973,1.237c-1.147,0-2.098-0.379-2.854-1.135
		c-0.753-0.754-1.133-1.787-1.133-3.092c0-1.582,0.357-3.231,1.067-4.948c0.71-1.717,1.77-3.277,3.176-4.673
		c1.41-1.396,3.197-2.526,5.361-3.384c2.167-0.858,4.704-1.289,7.613-1.289c3.504,0,6.494,0.55,8.97,1.649
		c1.601,0.736,3.011,1.743,4.224,3.024c1.217,1.283,2.161,2.767,2.836,4.449c0.676,1.683,1.014,3.43,1.014,5.239
		c0,2.842-0.703,5.424-2.113,7.748c-1.41,2.326-2.847,4.147-4.313,5.465c-1.466,1.316-3.924,3.383-7.369,6.202
		s-5.813,5.006-7.096,6.564C110.298,139.826,109.738,140.57,109.164,141.44z"/>
</g>
<g>
</g>
<g>
</g>
<g>
</g>
<g>
</g>
<g>
</g>
<g>
</g>
<g>
</g>
<g>
</g>
<g>
</g>
<g>
</g>
<g>
</g>
<g>
</g>
<g>
</g>
<g>
</g>
<g>
</g>
</svg>
