<?xml version="1.0" encoding="iso-8859-1"?>
<!-- Generator: Adobe Illustrator 19.0.0, SVG Export Plug-In . SVG Version: 6.00 Build 0)  -->
<svg version="1.1" id="Capa_1" xmlns="http://www.w3.org/2000/svg" xmlns:xlink="http://www.w3.org/1999/xlink" x="0px" y="0px"
	 viewBox="0 0 464 464" style="enable-background:new 0 0 464 464;" xml:space="preserve">
<rect x="176" style="fill:#B09E88;" width="288" height="384"/>
<rect y="80" style="fill:#C7B299;" width="288" height="384"/>
<polyline style="fill:#816F5A;" points="288,80 176,0 176,80 288,80 "/>
<rect x="328" y="40" style="fill:#FBB03B;" width="96" height="48"/>
<g>
	<rect x="320" y="112" style="fill:#8C6239;" width="16" height="16"/>
	<rect x="352" y="112" style="fill:#8C6239;" width="80" height="16"/>
	<rect x="320" y="144" style="fill:#8C6239;" width="112" height="16"/>
	<rect x="320" y="176" style="fill:#8C6239;" width="112" height="16"/>
</g>
<rect x="328" y="232" style="fill:#FBB03B;" width="96" height="48"/>
<g>
	<rect x="320" y="304" style="fill:#8C6239;" width="16" height="16"/>
	<rect x="352" y="304" style="fill:#8C6239;" width="80" height="16"/>
	<rect x="320" y="336" style="fill:#8C6239;" width="112" height="16"/>
</g>
<rect x="40" y="360" style="fill:#FBB03B;" width="64" height="64"/>
<g>
	<rect x="128" y="352" style="fill:#8C6239;" width="16" height="16"/>
	<rect x="160" y="352" style="fill:#8C6239;" width="96" height="16"/>
	<rect x="128" y="384" style="fill:#8C6239;" width="128" height="16"/>
	<rect x="128" y="416" style="fill:#8C6239;" width="128" height="16"/>
</g>
<rect x="48" y="128" style="fill:#29ABE2;" width="192" height="160"/>
<polygon style="fill:#006837;" points="240,256 192,208 152,248 104,200 48,248 48,288 240,288 "/>
<circle style="fill:#FBB03B;" cx="152" cy="176" r="24"/>
<g>
	<rect x="80" y="152" style="fill:#0071BC;" width="16" height="16"/>
	<rect x="200" y="168" style="fill:#0071BC;" width="16" height="16"/>
</g>
<g>
</g>
<g>
</g>
<g>
</g>
<g>
</g>
<g>
</g>
<g>
</g>
<g>
</g>
<g>
</g>
<g>
</g>
<g>
</g>
<g>
</g>
<g>
</g>
<g>
</g>
<g>
</g>
<g>
</g>
</svg>
