<?xml version="1.0" encoding="iso-8859-1"?>
<!-- Generator: Adobe Illustrator 19.0.0, SVG Export Plug-In . SVG Version: 6.00 Build 0)  -->
<svg version="1.1" id="Capa_1" xmlns="http://www.w3.org/2000/svg" xmlns:xlink="http://www.w3.org/1999/xlink" x="0px" y="0px"
	 viewBox="0 0 512 512" style="enable-background:new 0 0 512 512;" xml:space="preserve">
<g transform="matrix(1.25 0 0 -1.25 0 45)">
	<g transform="translate(18 36)">
		<path d="M186.8,0L-18-56.889v-329.956L186.8-409.6l204.8,22.756v329.956L186.8,0z"/>
		<path style="fill:#292F33;" d="M186.8,0v-409.6l204.8,22.756v329.956L186.8,0z"/>
	</g>
	<g>
		<path style="fill:#FFD983;" d="M255.478-129.058v-38.764l48.116-6.963v37.615L255.478-129.058z"/>
		<path style="fill:#FFD983;" d="M335.117-142.491v-36.864l37.535-5.427v35.965L335.117-142.491z"/>
		<path style="fill:#FFD983;" d="M204.8-120.511v-39.97l19.149-2.776v39.515L204.8-120.511z"/>
		<path style="fill:#FFD983;" d="M403.466-189.249l6.132-0.876v35.078l-6.132,1.036V-189.249z"/>
	</g>
	<g>
		<path style="fill:#FFAC33;" d="M0-155.046v-35.078l6.132,0.876v35.237L0-155.046z"/>
		<path style="fill:#FFAC33;" d="M185.649-123.741v-39.515l19.149,2.776v39.97L185.649-123.741z"/>
		<path style="fill:#FFAC33;" d="M36.948-148.82v-35.965l37.535,5.439v36.852L36.948-148.82z"/>
		<path style="fill:#FFAC33;" d="M106.01-137.172v-37.615l48.116,6.963v38.764L106.01-137.172z"/>
	</g>
	<g>
		<g>
			<path style="fill:#FFD983;" d="M243.355-136.157v0.478c0,4.79-1.627,8.681-3.641,8.681c-2.014,0-3.641-3.891-3.641-8.681v-0.478
				c-2.367-2.469-4.027-7.066-4.027-12.55c0-5.837,1.843-10.797,4.46-13.107c0.728-2.219,1.866-3.755,3.208-3.755
				c1.343,0,2.481,1.536,3.208,3.755c2.617,2.31,4.472,7.27,4.472,13.107C247.394-143.223,245.722-138.626,243.355-136.157"/>
			<path style="fill:#FFD983;" d="M322.993-148.321v0.478c0,4.79-1.627,8.681-3.641,8.681c-2.014,0-3.641-3.891-3.641-8.681v-0.478
				c-2.367-2.469-4.027-7.066-4.027-12.55c0-5.837,1.843-10.797,4.46-13.107c0.728-2.219,1.866-3.755,3.208-3.755
				c1.343,0,2.481,1.536,3.208,3.755c2.617,2.31,4.472,7.27,4.472,13.107C327.032-155.387,325.36-150.79,322.993-148.321"/>
			<path style="fill:#FFD983;" d="M391.458-160.04v0.443c0,4.472-1.524,8.101-3.402,8.101c-1.877,0-3.391-3.629-3.391-8.101v-0.443
				c-2.219-2.31-3.766-6.599-3.766-11.719c0-5.45,1.718-10.081,4.165-12.231c0.683-2.071,1.741-3.515,2.993-3.515
				c1.263,0,2.321,1.445,2.993,3.515c2.458,2.15,4.175,6.781,4.175,12.231C395.225-166.639,393.666-162.35,391.458-160.04"/>
		</g>
		<g>
			<path style="fill:#FFAC33;" d="M166.245-136.157v0.478c0,4.79,1.627,8.681,3.641,8.681c2.014,0,3.641-3.891,3.641-8.681v-0.478
				c2.367-2.469,4.027-7.066,4.027-12.55c0-5.837-1.843-10.797-4.46-13.107c-0.728-2.219-1.866-3.755-3.208-3.755
				s-2.481,1.536-3.208,3.755c-2.617,2.31-4.472,7.27-4.472,13.107C162.206-143.223,163.878-138.626,166.245-136.157"/>
			<path style="fill:#FFAC33;" d="M86.607-148.321v0.478c0,4.79,1.627,8.681,3.641,8.681c2.014,0,3.641-3.891,3.641-8.681v-0.478
				c2.367-2.469,4.027-7.066,4.027-12.55c0-5.837-1.843-10.797-4.46-13.107c-0.728-2.219-1.866-3.755-3.208-3.755
				c-1.343,0-2.481,1.536-3.208,3.755c-2.617,2.31-4.472,7.27-4.472,13.107C82.568-155.387,84.24-150.79,86.607-148.321"/>
			<path style="fill:#FFAC33;" d="M18.143-160.04v0.443c0,4.472,1.524,8.101,3.402,8.101s3.391-3.629,3.391-8.101v-0.443
				c2.219-2.31,3.766-6.599,3.766-11.719c0-5.45-1.718-10.081-4.165-12.231c-0.683-2.071-1.741-3.515-2.993-3.515
				c-1.263,0-2.321,1.445-2.993,3.515c-2.458,2.15-4.175,6.781-4.175,12.231C14.376-166.639,15.935-162.35,18.143-160.04"/>
			<path style="fill:#FFAC33;" d="M0-90.814v-39.822l204.8,37.183v42.815L0-90.814z"/>
		</g>
		<path style="fill:#FFD983;" d="M204.8-50.636v-42.815l204.8-37.183v39.822L204.8-50.636z"/>
	</g>
</g>
<g>
</g>
<g>
</g>
<g>
</g>
<g>
</g>
<g>
</g>
<g>
</g>
<g>
</g>
<g>
</g>
<g>
</g>
<g>
</g>
<g>
</g>
<g>
</g>
<g>
</g>
<g>
</g>
<g>
</g>
</svg>
