<?xml version="1.0" encoding="iso-8859-1"?>
<!-- Generator: Adobe Illustrator 19.0.0, SVG Export Plug-In . SVG Version: 6.00 Build 0)  -->
<svg version="1.1" id="Capa_1" xmlns="http://www.w3.org/2000/svg" xmlns:xlink="http://www.w3.org/1999/xlink" x="0px" y="0px"
	 viewBox="0 0 511.999 511.999" style="enable-background:new 0 0 511.999 511.999;" xml:space="preserve">
<linearGradient id="SVGID_1_" gradientUnits="userSpaceOnUse" x1="35.9996" y1="258.0004" x2="475.9996" y2="258.0004" gradientTransform="matrix(1 0 0 -1 0 514)">
	<stop  offset="0" style="stop-color:#80D8FF"/>
	<stop  offset="0.16" style="stop-color:#88D1FF"/>
	<stop  offset="0.413" style="stop-color:#9FBEFE"/>
	<stop  offset="0.725" style="stop-color:#C4A0FD"/>
	<stop  offset="1" style="stop-color:#EA80FC"/>
</linearGradient>
<path style="fill:url(#SVGID_1_);" d="M256,0C134.684,0,36,96.243,36,215.851c0,68.63,33.021,132.639,88.879,173.334V492
	c0,7.938,4.694,15.124,11.962,18.313c7.225,3.173,15.704,1.809,21.577-3.593l82.144-75.555c5.17,0.355,10.335,0.535,15.438,0.535
	c121.316,0,220-96.243,220-215.851C476,96.13,377.21,0,256,0z M256,391.701c-6.687,0-13.516-0.376-20.298-1.118
	c-5.737-0.634-11.466,1.253-15.715,5.161l-55.108,50.687v-67.726c0-6.741-3.396-13.029-9.034-16.726
	C105.848,329.2,76,274.573,76,215.851C76,118.886,156.747,40,256,40s180,78.886,180,175.851
	C436,312.814,355.252,391.701,256,391.701z M336,168.877c0,38.599-31.402,70-70,70v8.793c0,11.046-8.954,20-20,20
	c-11.046,0-20-8.954-20-20v-28.793c0-11.046,8.954-20,20-20h20c16.542,0,30-13.458,30-30s-13.458-30-30-30h-70
	c-11.046,0-20-8.954-20-20s8.954-20,20-20h70C304.598,98.877,336,130.279,336,168.877z M273,319.159c0,14.912-12.088,27-27,27
	c-14.912,0-27-12.088-27-27s12.088-27,27-27C260.912,292.159,273,304.248,273,319.159z"/>
<g>
</g>
<g>
</g>
<g>
</g>
<g>
</g>
<g>
</g>
<g>
</g>
<g>
</g>
<g>
</g>
<g>
</g>
<g>
</g>
<g>
</g>
<g>
</g>
<g>
</g>
<g>
</g>
<g>
</g>
</svg>
